{
	"asset":{
		"generator":"Khronos glTF Blender I/O v4.0.43",
		"version":"2.0"
	},
	"extensionsUsed":[
		"KHR_materials_specular",
		"KHR_materials_ior"
	],
	"scene":0,
	"scenes":[
		{
			"name":"Scene",
			"nodes":[
				0,
				1,
				2,
				3,
				4,
				5,
				6,
				7,
				8,
				9
			]
		}
	],
	"nodes":[
		{
			"mesh":0,
			"name":"Waterproof cover",
			"scale":[
				0.006400757469236851,
				0.006400787737220526,
				0.006400787737220526
			],
			"translation":[
				-0.002368000103160739,
				0.20401474833488464,
				-0.6687347888946533
			]
		},
		{
			"mesh":1,
			"name":"Solar panels",
			"scale":[
				0.0064007616601884365,
				0.006400787737220526,
				0.006400787737220526
			],
			"translation":[
				-0.003118351101875305,
				0.381174772977829,
				-0.06860559433698654
			]
		},
		{
			"mesh":2,
			"name":"Glass",
			"rotation":[
				-0.5,
				0.5,
				-0.5,
				0.5
			],
			"scale":[
				0.6039620637893677,
				0.6039620637893677,
				0.6039593815803528
			],
			"translation":[
				-0.30045586824417114,
				0.40413662791252136,
				0.06706667691469193
			]
		},
		{
			"mesh":3,
			"name":"\u67f1\u4f53.003",
			"rotation":[
				0,
				0,
				-0.7071068286895752,
				0.7071068286895752
			],
			"scale":[
				1,
				0.8428381085395813,
				1
			],
			"translation":[
				-0.872937023639679,
				0.19268900156021118,
				-0.37777599692344666
			]
		},
		{
			"mesh":4,
			"name":"\u67f1\u4f53.004",
			"rotation":[
				0,
				0,
				-0.7071068286895752,
				0.7071068286895752
			],
			"scale":[
				1,
				0.8428381085395813,
				1
			],
			"translation":[
				0.872937023639679,
				0.19268900156021118,
				-0.37777599692344666
			]
		},
		{
			"mesh":5,
			"name":"Face Frame",
			"scale":[
				0.0064007616601884365,
				0.006400787737220526,
				0.006400787737220526
			],
			"translation":[
				-0.00237448513507843,
				0.42121002078056335,
				-0.06860684603452682
			]
		},
		{
			"mesh":6,
			"name":"Barrier",
			"rotation":[
				0.7071068286895752,
				0,
				0,
				0.7071068286895752
			],
			"scale":[
				0.0064007616601884365,
				0.006400787737220526,
				0.006400787737220526
			],
			"translation":[
				-0.001337252790108323,
				0.19268900156021118,
				-0.37777599692344666
			]
		},
		{
			"mesh":7,
			"name":"Base plate",
			"scale":[
				0.0064007616601884365,
				0.006400787737220526,
				0.006400787737220526
			],
			"translation":[
				-0.002581849694252014,
				0.02176925539970398,
				-0.06798040121793747
			]
		},
		{
			"mesh":8,
			"name":"Main shaft",
			"rotation":[
				0,
				0,
				-0.7071068286895752,
				0.7071068286895752
			],
			"scale":[
				0.514185905456543,
				3.9692301750183105,
				0.514185905456543
			],
			"translation":[
				-0.002340941922739148,
				0.19268900156021118,
				-0.37777599692344666
			]
		},
		{
			"mesh":9,
			"name":"Housing",
			"scale":[
				0.006400798447430134,
				0.006400787737220526,
				0.006400787737220526
			],
			"translation":[
				0.0005293935537338257,
				0.20972654223442078,
				-0.07783126085996628
			]
		}
	],
	"animations":[
		{
			"channels":[
				{
					"sampler":0,
					"target":{
						"node":6,
						"path":"rotation"
					}
				}
			],
			"name":"\u4fdd\u62a4",
			"samplers":[
				{
					"input":33,
					"interpolation":"LINEAR",
					"output":34
				}
			]
		},
		{
			"channels":[
				{
					"sampler":0,
					"target":{
						"node":6,
						"path":"rotation"
					}
				}
			],
			"name":"\u5347\u8d77",
			"samplers":[
				{
					"input":35,
					"interpolation":"LINEAR",
					"output":36
				}
			]
		},
		{
			"channels":[
				{
					"sampler":0,
					"target":{
						"node":6,
						"path":"rotation"
					}
				}
			],
			"name":"\u56de\u6b63",
			"samplers":[
				{
					"input":37,
					"interpolation":"LINEAR",
					"output":38
				}
			]
		},
		{
			"channels":[
				{
					"sampler":0,
					"target":{
						"node":6,
						"path":"rotation"
					}
				}
			],
			"name":"\u653e\u4e0b",
			"samplers":[
				{
					"input":35,
					"interpolation":"LINEAR",
					"output":39
				}
			]
		}
	],
	"materials":[
		{
			"doubleSided":true,
			"extensions":{
				"KHR_materials_specular":{
					"specularFactor":0.34272301197052
				},
				"KHR_materials_ior":{
					"ior":1.4500000476837158
				}
			},
			"name":"\u5851\u6599",
			"pbrMetallicRoughness":{
				"baseColorFactor":[
					0.006147196516394615,
					0.006147196516394615,
					0.006147196516394615,
					1
				],
				"metallicFactor":0,
				"roughnessFactor":0.5
			}
		},
		{
			"doubleSided":true,
			"name":"\u6750\u8d28",
			"pbrMetallicRoughness":{
				"baseColorTexture":{
					"index":0
				},
				"metallicFactor":0,
				"roughnessFactor":0.5
			}
		},
		{
			"doubleSided":true,
			"name":"\u73bb\u7483",
			"pbrMetallicRoughness":{}
		},
		{
			"doubleSided":true,
			"name":"\u91d1\u5c5e\u6a59\u8272",
			"pbrMetallicRoughness":{
				"baseColorFactor":[
					0.8000000715255737,
					0.23802827298641205,
					0,
					1
				],
				"metallicFactor":0.9478527307510376,
				"roughnessFactor":0.27863073348999023
			}
		},
		{
			"doubleSided":true,
			"name":"\u91d1\u5c5e",
			"pbrMetallicRoughness":{
				"baseColorFactor":[
					0.800000011920929,
					0.800000011920929,
					0.800000011920929,
					1
				],
				"metallicFactor":0.9478527307510376,
				"roughnessFactor":0.27863073348999023
			}
		},
		{
			"doubleSided":true,
			"name":"\u78e8\u7802\u91d1\u5c5e\u9ed1",
			"pbrMetallicRoughness":{
				"baseColorFactor":[
					0.024892056360840797,
					0.024892056360840797,
					0.024892056360840797,
					1
				],
				"metallicFactor":0.9478527307510376,
				"roughnessFactor":0.6411042809486389
			}
		},
		{
			"doubleSided":true,
			"name":"\u91d1\u5c5e.001",
			"pbrMetallicRoughness":{
				"baseColorFactor":[
					0.800000011920929,
					0.800000011920929,
					0.800000011920929,
					1
				],
				"metallicFactor":0.9478527307510376,
				"roughnessFactor":0.27863073348999023
			}
		}
	],
	"meshes":[
		{
			"name":"Waterproof cover-2",
			"primitives":[
				{
					"attributes":{
						"POSITION":0,
						"NORMAL":1
					},
					"indices":2,
					"material":0
				}
			]
		},
		{
			"name":"Solar panels",
			"primitives":[
				{
					"attributes":{
						"POSITION":3,
						"NORMAL":4,
						"TEXCOORD_0":5
					},
					"indices":6,
					"material":1
				}
			]
		},
		{
			"name":"Glass",
			"primitives":[
				{
					"attributes":{
						"POSITION":7,
						"NORMAL":8
					},
					"indices":9,
					"material":2
				}
			]
		},
		{
			"name":"\u67f1\u4f53.011",
			"primitives":[
				{
					"attributes":{
						"POSITION":10,
						"NORMAL":11
					},
					"indices":12,
					"material":3
				}
			]
		},
		{
			"name":"\u67f1\u4f53.010",
			"primitives":[
				{
					"attributes":{
						"POSITION":13,
						"NORMAL":14
					},
					"indices":12,
					"material":3
				}
			]
		},
		{
			"name":"Face Frame.001",
			"primitives":[
				{
					"attributes":{
						"POSITION":15,
						"NORMAL":16
					},
					"indices":17,
					"material":3
				}
			]
		},
		{
			"name":"Barrier.001",
			"primitives":[
				{
					"attributes":{
						"POSITION":18,
						"NORMAL":19
					},
					"indices":20,
					"material":4
				}
			]
		},
		{
			"name":"Base plate.001",
			"primitives":[
				{
					"attributes":{
						"POSITION":21,
						"NORMAL":22
					},
					"indices":23,
					"material":4
				}
			]
		},
		{
			"name":"\u67f1\u4f53.004",
			"primitives":[
				{
					"attributes":{
						"POSITION":24,
						"NORMAL":25
					},
					"indices":26,
					"material":4
				}
			]
		},
		{
			"name":"Housing.001",
			"primitives":[
				{
					"attributes":{
						"POSITION":27,
						"NORMAL":28
					},
					"indices":29,
					"material":5
				},
				{
					"attributes":{
						"POSITION":30,
						"NORMAL":31
					},
					"indices":32,
					"material":6
				}
			]
		}
	],
	"textures":[
		{
			"sampler":0,
			"source":0
		}
	],
	"images":[
		{
			"mimeType":"image/jpeg",
			"name":"1008\u88c5\u914d\u4f53 - \u7535\u6c60\u677f-1",
			"uri":"1008%E8%A3%85%E9%85%8D%E4%BD%93%20-%20%E7%94%B5%E6%B1%A0%E6%9D%BF-1.jpg"
		}
	],
	"accessors":[
		{
			"bufferView":0,
			"componentType":5126,
			"count":2100,
			"max":[
				15.499374389648438,
				3.4230709075927734,
				203.01756286621094
			],
			"min":[
				-15.500818252563477,
				-6.564638137817383,
				-15.500015258789062
			],
			"type":"VEC3"
		},
		{
			"bufferView":1,
			"componentType":5126,
			"count":2100,
			"type":"VEC3"
		},
		{
			"bufferView":2,
			"componentType":5123,
			"count":9288,
			"type":"SCALAR"
		},
		{
			"bufferView":3,
			"componentType":5126,
			"count":336,
			"max":[
				81.11634826660156,
				1.257537841796875,
				55.000186920166016
			],
			"min":[
				-80.88365173339844,
				-3.242462158203125,
				-54.99981689453125
			],
			"type":"VEC3"
		},
		{
			"bufferView":4,
			"componentType":5126,
			"count":336,
			"type":"VEC3"
		},
		{
			"bufferView":5,
			"componentType":5126,
			"count":336,
			"type":"VEC2"
		},
		{
			"bufferView":6,
			"componentType":5123,
			"count":924,
			"type":"SCALAR"
		},
		{
			"bufferView":7,
			"componentType":5126,
			"count":24,
			"max":[
				0.025445345789194107,
				0.8775736093521118,
				1.3915493488311768
			],
			"min":[
				-0.0217023566365242,
				-0.431172251701355,
				-0.424028605222702
			],
			"type":"VEC3"
		},
		{
			"bufferView":8,
			"componentType":5126,
			"count":24,
			"type":"VEC3"
		},
		{
			"bufferView":9,
			"componentType":5123,
			"count":36,
			"type":"SCALAR"
		},
		{
			"bufferView":10,
			"componentType":5126,
			"count":128,
			"max":[
				0.0989999994635582,
				0.17550000548362732,
				0.0989999994635582
			],
			"min":[
				-0.0989999994635582,
				-0.17550000548362732,
				-0.0989999994635582
			],
			"type":"VEC3"
		},
		{
			"bufferView":11,
			"componentType":5126,
			"count":128,
			"type":"VEC3"
		},
		{
			"bufferView":12,
			"componentType":5123,
			"count":372,
			"type":"SCALAR"
		},
		{
			"bufferView":13,
			"componentType":5126,
			"count":128,
			"max":[
				0.0989999994635582,
				0.17550000548362732,
				0.0989999994635582
			],
			"min":[
				-0.0989999994635582,
				-0.17550000548362732,
				-0.0989999994635582
			],
			"type":"VEC3"
		},
		{
			"bufferView":14,
			"componentType":5126,
			"count":128,
			"type":"VEC3"
		},
		{
			"bufferView":15,
			"componentType":5126,
			"count":729,
			"max":[
				93.75013732910156,
				3.0027923583984375,
				68.7503662109375
			],
			"min":[
				-93.74986267089844,
				-4.997203826904297,
				-68.7496337890625
			],
			"type":"VEC3"
		},
		{
			"bufferView":16,
			"componentType":5126,
			"count":729,
			"type":"VEC3"
		},
		{
			"bufferView":17,
			"componentType":5123,
			"count":3426,
			"type":"SCALAR"
		},
		{
			"bufferView":18,
			"componentType":5126,
			"count":2156,
			"max":[
				247.708251953125,
				262.4549560546875,
				12.804542541503906
			],
			"min":[
				-247.708251953125,
				-12.454971313476562,
				-12.184196472167969
			],
			"type":"VEC3"
		},
		{
			"bufferView":19,
			"componentType":5126,
			"count":2156,
			"type":"VEC3"
		},
		{
			"bufferView":20,
			"componentType":5123,
			"count":12714,
			"type":"SCALAR"
		},
		{
			"bufferView":21,
			"componentType":5126,
			"count":4012,
			"max":[
				105.26356506347656,
				3.8185949325561523,
				80.133544921875
			],
			"min":[
				-105.19851684570312,
				-2.0922911167144775,
				-80.32853698730469
			],
			"type":"VEC3"
		},
		{
			"bufferView":22,
			"componentType":5126,
			"count":4012,
			"type":"VEC3"
		},
		{
			"bufferView":23,
			"componentType":5123,
			"count":15444,
			"type":"SCALAR"
		},
		{
			"bufferView":24,
			"componentType":5126,
			"count":672,
			"max":[
				0.0989999994635582,
				0.21770121157169342,
				0.0989999994635582
			],
			"min":[
				-0.0989999994635582,
				-0.21770121157169342,
				-0.0989999994635582
			],
			"type":"VEC3"
		},
		{
			"bufferView":25,
			"componentType":5126,
			"count":672,
			"type":"VEC3"
		},
		{
			"bufferView":26,
			"componentType":5123,
			"count":2676,
			"type":"SCALAR"
		},
		{
			"bufferView":27,
			"componentType":5126,
			"count":7618,
			"max":[
				109.73748779296875,
				32.041751861572266,
				111.90350341796875
			],
			"min":[
				-110.65323638916016,
				-31.957012176513672,
				-109.0204849243164
			],
			"type":"VEC3"
		},
		{
			"bufferView":28,
			"componentType":5126,
			"count":7618,
			"type":"VEC3"
		},
		{
			"bufferView":29,
			"componentType":5123,
			"count":25431,
			"type":"SCALAR"
		},
		{
			"bufferView":30,
			"componentType":5126,
			"count":524,
			"max":[
				109.73748779296875,
				19.515094757080078,
				-24.525239944458008
			],
			"min":[
				-110.65323638916016,
				-25.51163673400879,
				-69.59195709228516
			],
			"type":"VEC3"
		},
		{
			"bufferView":31,
			"componentType":5126,
			"count":524,
			"type":"VEC3"
		},
		{
			"bufferView":32,
			"componentType":5123,
			"count":1626,
			"type":"SCALAR"
		},
		{
			"bufferView":33,
			"componentType":5126,
			"count":36,
			"max":[
				1.4583333333333333
			],
			"min":[
				0
			],
			"type":"SCALAR"
		},
		{
			"bufferView":34,
			"componentType":5126,
			"count":36,
			"type":"VEC4"
		},
		{
			"bufferView":35,
			"componentType":5126,
			"count":41,
			"max":[
				1.6666666666666667
			],
			"min":[
				0
			],
			"type":"SCALAR"
		},
		{
			"bufferView":36,
			"componentType":5126,
			"count":41,
			"type":"VEC4"
		},
		{
			"bufferView":37,
			"componentType":5126,
			"count":66,
			"max":[
				2.7083333333333335
			],
			"min":[
				0
			],
			"type":"SCALAR"
		},
		{
			"bufferView":38,
			"componentType":5126,
			"count":66,
			"type":"VEC4"
		},
		{
			"bufferView":39,
			"componentType":5126,
			"count":41,
			"type":"VEC4"
		}
	],
	"bufferViews":[
		{
			"buffer":0,
			"byteLength":25200,
			"byteOffset":0,
			"target":34962
		},
		{
			"buffer":0,
			"byteLength":25200,
			"byteOffset":25200,
			"target":34962
		},
		{
			"buffer":0,
			"byteLength":18576,
			"byteOffset":50400,
			"target":34963
		},
		{
			"buffer":0,
			"byteLength":4032,
			"byteOffset":68976,
			"target":34962
		},
		{
			"buffer":0,
			"byteLength":4032,
			"byteOffset":73008,
			"target":34962
		},
		{
			"buffer":0,
			"byteLength":2688,
			"byteOffset":77040,
			"target":34962
		},
		{
			"buffer":0,
			"byteLength":1848,
			"byteOffset":79728,
			"target":34963
		},
		{
			"buffer":0,
			"byteLength":288,
			"byteOffset":81576,
			"target":34962
		},
		{
			"buffer":0,
			"byteLength":288,
			"byteOffset":81864,
			"target":34962
		},
		{
			"buffer":0,
			"byteLength":72,
			"byteOffset":82152,
			"target":34963
		},
		{
			"buffer":0,
			"byteLength":1536,
			"byteOffset":82224,
			"target":34962
		},
		{
			"buffer":0,
			"byteLength":1536,
			"byteOffset":83760,
			"target":34962
		},
		{
			"buffer":0,
			"byteLength":744,
			"byteOffset":85296,
			"target":34963
		},
		{
			"buffer":0,
			"byteLength":1536,
			"byteOffset":86040,
			"target":34962
		},
		{
			"buffer":0,
			"byteLength":1536,
			"byteOffset":87576,
			"target":34962
		},
		{
			"buffer":0,
			"byteLength":8748,
			"byteOffset":89112,
			"target":34962
		},
		{
			"buffer":0,
			"byteLength":8748,
			"byteOffset":97860,
			"target":34962
		},
		{
			"buffer":0,
			"byteLength":6852,
			"byteOffset":106608,
			"target":34963
		},
		{
			"buffer":0,
			"byteLength":25872,
			"byteOffset":113460,
			"target":34962
		},
		{
			"buffer":0,
			"byteLength":25872,
			"byteOffset":139332,
			"target":34962
		},
		{
			"buffer":0,
			"byteLength":25428,
			"byteOffset":165204,
			"target":34963
		},
		{
			"buffer":0,
			"byteLength":48144,
			"byteOffset":190632,
			"target":34962
		},
		{
			"buffer":0,
			"byteLength":48144,
			"byteOffset":238776,
			"target":34962
		},
		{
			"buffer":0,
			"byteLength":30888,
			"byteOffset":286920,
			"target":34963
		},
		{
			"buffer":0,
			"byteLength":8064,
			"byteOffset":317808,
			"target":34962
		},
		{
			"buffer":0,
			"byteLength":8064,
			"byteOffset":325872,
			"target":34962
		},
		{
			"buffer":0,
			"byteLength":5352,
			"byteOffset":333936,
			"target":34963
		},
		{
			"buffer":0,
			"byteLength":91416,
			"byteOffset":339288,
			"target":34962
		},
		{
			"buffer":0,
			"byteLength":91416,
			"byteOffset":430704,
			"target":34962
		},
		{
			"buffer":0,
			"byteLength":50862,
			"byteOffset":522120,
			"target":34963
		},
		{
			"buffer":0,
			"byteLength":6288,
			"byteOffset":572984,
			"target":34962
		},
		{
			"buffer":0,
			"byteLength":6288,
			"byteOffset":579272,
			"target":34962
		},
		{
			"buffer":0,
			"byteLength":3252,
			"byteOffset":585560,
			"target":34963
		},
		{
			"buffer":0,
			"byteLength":144,
			"byteOffset":588812
		},
		{
			"buffer":0,
			"byteLength":576,
			"byteOffset":588956
		},
		{
			"buffer":0,
			"byteLength":164,
			"byteOffset":589532
		},
		{
			"buffer":0,
			"byteLength":656,
			"byteOffset":589696
		},
		{
			"buffer":0,
			"byteLength":264,
			"byteOffset":590352
		},
		{
			"buffer":0,
			"byteLength":1056,
			"byteOffset":590616
		},
		{
			"buffer":0,
			"byteLength":656,
			"byteOffset":591672
		}
	],
	"samplers":[
		{
			"magFilter":9729,
			"minFilter":9987
		}
	],
	"buffers":[
		{
			"byteLength":592328,
			"uri":"scene.bin"
		}
	]
}
